<svg width="31" height="22" viewBox="0 0 31 22" fill="none" xmlns="http://www.w3.org/2000/svg">
<g id="magnifying-glass-solid 1" clip-path="url(#clip0_103_27)">
<path id="Vector" d="M25.1875 8.9375C25.1875 10.9098 24.2854 12.7316 22.7656 14.2098L30.4309 19.6539C31.1877 20.191 31.1877 21.0633 30.4309 21.6004C29.674 22.1375 28.4449 22.1375 27.6881 21.6004L20.0229 16.1563C17.94 17.2391 15.3729 17.875 12.5938 17.875C5.63691 17.875 0 13.8746 0 8.9375C0 4.00039 5.63691 0 12.5938 0C19.5506 0 25.1875 4.00039 25.1875 8.9375ZM12.5938 15.125C13.7387 15.125 14.8725 14.965 15.9303 14.654C16.9881 14.3431 17.9492 13.8873 18.7588 13.3127C19.5684 12.7382 20.2107 12.0561 20.6488 11.3054C21.087 10.5547 21.3125 9.75006 21.3125 8.9375C21.3125 8.12495 21.087 7.32035 20.6488 6.56965C20.2107 5.81894 19.5684 5.13684 18.7588 4.56228C17.9492 3.98771 16.9881 3.53195 15.9303 3.221C14.8725 2.91004 13.7387 2.75 12.5938 2.75C11.4488 2.75 10.315 2.91004 9.25723 3.221C8.19942 3.53195 7.23827 3.98771 6.42866 4.56228C5.61905 5.13684 4.97683 5.81894 4.53867 6.56965C4.10052 7.32035 3.875 8.12495 3.875 8.9375C3.875 9.75006 4.10052 10.5547 4.53867 11.3054C4.97683 12.0561 5.61905 12.7382 6.42866 13.3127C7.23827 13.8873 8.19942 14.3431 9.25723 14.654C10.315 14.965 11.4488 15.125 12.5938 15.125Z" fill="#7F7F7F"/>
</g>
<defs>
<clipPath id="clip0_103_27">
<rect width="31" height="22" fill="white"/>
</clipPath>
</defs>
</svg>
