<svg width="128" height="32" viewBox="0 0 128 32" fill="none" xmlns="http://www.w3.org/2000/svg">
<path d="M8.50217 25H0.252166V1.72727H8.57035C10.9113 1.72727 12.9264 2.19318 14.6158 3.125C16.3052 4.04924 17.6044 5.37879 18.5135 7.11364C19.4302 8.84848 19.8885 10.9242 19.8885 13.3409C19.8885 15.7652 19.4302 17.8485 18.5135 19.5909C17.6044 21.3333 16.2976 22.6705 14.5931 23.6023C12.8961 24.5341 10.8658 25 8.50217 25ZM5.17262 20.7841H8.29762C9.75217 20.7841 10.9757 20.5265 11.9681 20.0114C12.9681 19.4886 13.7181 18.6818 14.2181 17.5909C14.7257 16.4924 14.9794 15.0758 14.9794 13.3409C14.9794 11.6212 14.7257 10.2159 14.2181 9.125C13.7181 8.03409 12.9719 7.23106 11.9794 6.71591C10.987 6.20076 9.76353 5.94318 8.30898 5.94318H5.17262V20.7841ZM31.3971 25.3409C29.6016 25.3409 28.0561 24.9773 26.7607 24.25C25.4728 23.5152 24.4804 22.4773 23.7834 21.1364C23.0864 19.7879 22.738 18.1932 22.738 16.3523C22.738 14.5568 23.0864 12.9811 23.7834 11.625C24.4804 10.2689 25.4614 9.21212 26.7266 8.45454C27.9993 7.69697 29.4917 7.31818 31.2039 7.31818C32.3554 7.31818 33.4274 7.50379 34.4198 7.875C35.4198 8.23864 36.291 8.78788 37.0334 9.52273C37.7834 10.2576 38.3668 11.1818 38.7834 12.2955C39.2001 13.4015 39.4084 14.697 39.4084 16.1818V17.5114H24.6698V14.5114H34.8516C34.8516 13.8144 34.7001 13.197 34.3971 12.6591C34.094 12.1212 33.6736 11.7008 33.1357 11.3977C32.6054 11.0871 31.988 10.9318 31.2834 10.9318C30.5486 10.9318 29.8971 11.1023 29.3289 11.4432C28.7683 11.7765 28.3289 12.2273 28.0107 12.7955C27.6925 13.3561 27.5296 13.9811 27.5221 14.6705V17.5227C27.5221 18.3864 27.6811 19.1326 27.9993 19.7614C28.3251 20.3902 28.7834 20.875 29.3743 21.2159C29.9652 21.5568 30.666 21.7273 31.4766 21.7273C32.0145 21.7273 32.5069 21.6515 32.9539 21.5C33.4008 21.3485 33.7834 21.1212 34.1016 20.8182C34.4198 20.5152 34.6622 20.1439 34.8289 19.7045L39.3061 20C39.0789 21.0758 38.613 22.0152 37.9084 22.8182C37.2114 23.6136 36.3099 24.2348 35.2039 24.6818C34.1054 25.1212 32.8364 25.3409 31.3971 25.3409ZM47.4084 1.72727V25H42.5675V1.72727H47.4084ZM51.2863 25V7.54545H56.1272V25H51.2863ZM53.7181 5.29545C52.9984 5.29545 52.381 5.05682 51.8658 4.57954C51.3582 4.0947 51.1044 3.51515 51.1044 2.84091C51.1044 2.17424 51.3582 1.60227 51.8658 1.125C52.381 0.640151 52.9984 0.397726 53.7181 0.397726C54.4378 0.397726 55.0514 0.640151 55.559 1.125C56.0741 1.60227 56.3317 2.17424 56.3317 2.84091C56.3317 3.51515 56.0741 4.0947 55.559 4.57954C55.0514 5.05682 54.4378 5.29545 53.7181 5.29545ZM76.2777 7.54545L70.1755 25H64.7209L58.6186 7.54545H63.7323L67.3573 20.0341H67.5391L71.1527 7.54545H76.2777ZM86.1471 25.3409C84.3516 25.3409 82.8061 24.9773 81.5107 24.25C80.2228 23.5152 79.2304 22.4773 78.5334 21.1364C77.8364 19.7879 77.488 18.1932 77.488 16.3523C77.488 14.5568 77.8364 12.9811 78.5334 11.625C79.2304 10.2689 80.2114 9.21212 81.4766 8.45454C82.7493 7.69697 84.2417 7.31818 85.9539 7.31818C87.1054 7.31818 88.1774 7.50379 89.1698 7.875C90.1698 8.23864 91.041 8.78788 91.7834 9.52273C92.5334 10.2576 93.1168 11.1818 93.5334 12.2955C93.9501 13.4015 94.1584 14.697 94.1584 16.1818V17.5114H79.4198V14.5114H89.6016C89.6016 13.8144 89.4501 13.197 89.1471 12.6591C88.844 12.1212 88.4236 11.7008 87.8857 11.3977C87.3554 11.0871 86.738 10.9318 86.0334 10.9318C85.2986 10.9318 84.6471 11.1023 84.0789 11.4432C83.5183 11.7765 83.0789 12.2273 82.7607 12.7955C82.4425 13.3561 82.2796 13.9811 82.2721 14.6705V17.5227C82.2721 18.3864 82.4311 19.1326 82.7493 19.7614C83.0751 20.3902 83.5334 20.875 84.1243 21.2159C84.7152 21.5568 85.416 21.7273 86.2266 21.7273C86.7645 21.7273 87.2569 21.6515 87.7039 21.5C88.1508 21.3485 88.5334 21.1212 88.8516 20.8182C89.1698 20.5152 89.4122 20.1439 89.5789 19.7045L94.0561 20C93.8289 21.0758 93.363 22.0152 92.6584 22.8182C91.9614 23.6136 91.0599 24.2348 89.9539 24.6818C88.8554 25.1212 87.5864 25.3409 86.1471 25.3409ZM97.3175 25V7.54545H102.011V10.5909H102.193C102.511 9.50758 103.045 8.68939 103.795 8.13636C104.545 7.57576 105.408 7.29545 106.386 7.29545C106.628 7.29545 106.889 7.31061 107.17 7.34091C107.45 7.37121 107.696 7.41288 107.908 7.46591V11.7614C107.681 11.6932 107.367 11.6326 106.965 11.5795C106.564 11.5265 106.196 11.5 105.863 11.5C105.151 11.5 104.514 11.6553 103.954 11.9659C103.401 12.2689 102.961 12.6932 102.636 13.2386C102.318 13.7841 102.158 14.4129 102.158 15.125V25H97.3175ZM113.931 31.5455C113.318 31.5455 112.742 31.4962 112.204 31.3977C111.674 31.3068 111.234 31.1894 110.886 31.0455L111.977 27.4318C112.545 27.6061 113.056 27.7008 113.511 27.7159C113.973 27.7311 114.371 27.625 114.704 27.3977C115.045 27.1705 115.321 26.7841 115.533 26.2386L115.818 25.5L109.556 7.54545H114.647L118.261 20.3636H118.443L122.09 7.54545H127.215L120.431 26.8864C120.105 27.8258 119.662 28.6439 119.102 29.3409C118.549 30.0455 117.848 30.5871 116.999 30.9659C116.151 31.3523 115.128 31.5455 113.931 31.5455Z" fill="white"/>
</svg>
